<svg xmlns="http://www.w3.org/2000/svg" version="1.0" viewBox="0 0 300 300">
  <path fill="#bdd4e7" d="M0 0h300v300H0z"/>
  <path d="M189 49.8c0 .4.5 1.3 1.1 1.9.6.6.9 2.1.7 3.4l-.3 2.4-54.4.3c-48.9.2-54.6.4-56.3 1.9-3.8 3.4-1.1 10.3 4 10.3 2.2 0 2.2.1 2.2 21 0 17.1-.3 21-1.4 21-.7 0-2.5.9-4 2.1-4.4 3.5-3.1 9.8 2.4 11.7l3 1.1v27c0 22.2-.2 27.1-1.4 27.1-.7 0-2.5.9-4 2.1-4.5 3.5-2.8 10.9 2.9 12.3l2.5.6v19.5c0 18.8-.1 19.5-2 19.5-2.8 0-6 3.5-6 6.5 0 1.4.9 3.4 2 4.5 2 2 3.1 2 71.6 1.8l69.7-.3 2-2.6c1.7-2.4 1.8-3 .6-5.5a7.8 7.8 0 0 0-4.6-3.9l-3.3-.9v-38.2l2.9-1.1c1.6-.6 3.7-2.3 4.6-3.7 1.7-2.6 1.7-2.9.2-6.2-1.2-2.5-2.5-3.6-4.7-4l-3-.7v-26.9c0-24.7.1-26.9 1.8-27.4 3.3-1.1 4.7-2.1 6-4.7 1.7-3.6-.1-7.3-4.5-8.9l-3.3-1.2.2-20.5.3-20.5 3.1-.8a6 6 0 0 0 4.2-8.6c-1.2-2.5-1.9-2.7-8.3-3.2s-7-.7-7.3-2.9c-.2-1.3.1-2.8.7-3.4 2.3-2.3.8-2.7-9.4-2.7-5.8 0-10.5.4-10.5.8zm9 4.7c0 3.2-.2 3.5-3 3.5s-3-.3-3-3.5.2-3.5 3-3.5 3 .3 3 3.5zM187.5 116c50.7 2 46.3 3.6-14.5 5.1-44.8 1.2-87.8.2-91.7-2-5.7-3.1 58.5-5 106.2-3.1zm20.9 70.1c19.8 2 18.4 2.9-8.4 4.9-28.1 2.1-122.1-.3-119.4-3 .8-.8 14.8-1.6 56.9-3.4a895 895 0 0 1 70.9 1.5z"/>
</svg>
